<mxfile host="app.diagrams.net" modified="2024-05-30T14:54:34.244Z" agent="Mozilla/5.0 (Windows NT 10.0; Win64; x64) AppleWebKit/537.36 (KHTML, like Gecko) Chrome/124.0.0.0 Safari/537.36" etag="uWJivjyVwMaqjSvAPgxo" version="24.4.10" type="github" pages="2">
  <diagram name="第 1 页" id="EU4W4cCcq-6-x1O9pFuo">
    <mxGraphModel dx="1674" dy="830" grid="1" gridSize="10" guides="1" tooltips="1" connect="1" arrows="1" fold="1" page="1" pageScale="1" pageWidth="827" pageHeight="1169" math="0" shadow="0">
      <root>
        <mxCell id="0" />
        <mxCell id="1" parent="0" />
        <mxCell id="6mWmFTsLhO2SCgkzVdUd-8" value="Vertical Tree Layout" style="swimlane;startSize=20;horizontal=1;childLayout=treeLayout;horizontalTree=0;sortEdges=1;resizable=0;containerType=tree;fontSize=12;" parent="1" vertex="1">
          <mxGeometry x="100" y="190" width="2236" height="370" as="geometry" />
        </mxCell>
        <mxCell id="6mWmFTsLhO2SCgkzVdUd-9" value="Home" style="whiteSpace=wrap;html=1;" parent="6mWmFTsLhO2SCgkzVdUd-8" vertex="1">
          <mxGeometry x="1137.979" y="40" width="100" height="40" as="geometry" />
        </mxCell>
        <mxCell id="6mWmFTsLhO2SCgkzVdUd-10" value="login" style="whiteSpace=wrap;html=1;" parent="6mWmFTsLhO2SCgkzVdUd-8" vertex="1">
          <mxGeometry x="160" y="130" width="100" height="40" as="geometry" />
        </mxCell>
        <mxCell id="6mWmFTsLhO2SCgkzVdUd-11" value="" style="edgeStyle=elbowEdgeStyle;elbow=vertical;html=1;rounded=1;curved=0;sourcePerimeterSpacing=0;targetPerimeterSpacing=0;startSize=6;endSize=6;fontSize=12;" parent="6mWmFTsLhO2SCgkzVdUd-8" source="6mWmFTsLhO2SCgkzVdUd-9" target="6mWmFTsLhO2SCgkzVdUd-10" edge="1">
          <mxGeometry relative="1" as="geometry" />
        </mxCell>
        <mxCell id="6mWmFTsLhO2SCgkzVdUd-13" value="" style="edgeStyle=elbowEdgeStyle;elbow=vertical;html=1;rounded=1;curved=0;sourcePerimeterSpacing=0;targetPerimeterSpacing=0;startSize=6;endSize=6;fontSize=12;" parent="6mWmFTsLhO2SCgkzVdUd-8" source="6mWmFTsLhO2SCgkzVdUd-9" target="6mWmFTsLhO2SCgkzVdUd-18" edge="1">
          <mxGeometry relative="1" as="geometry" />
        </mxCell>
        <mxCell id="6mWmFTsLhO2SCgkzVdUd-18" value="register" style="whiteSpace=wrap;html=1;" parent="6mWmFTsLhO2SCgkzVdUd-8" vertex="1">
          <mxGeometry x="704.1" y="130" width="100" height="40" as="geometry" />
        </mxCell>
        <mxCell id="6mWmFTsLhO2SCgkzVdUd-19" value="" style="edgeStyle=elbowEdgeStyle;elbow=vertical;html=1;rounded=1;curved=0;sourcePerimeterSpacing=0;targetPerimeterSpacing=0;startSize=6;endSize=6;fontSize=12;" parent="6mWmFTsLhO2SCgkzVdUd-8" source="6mWmFTsLhO2SCgkzVdUd-9" target="6mWmFTsLhO2SCgkzVdUd-20" edge="1">
          <mxGeometry relative="1" as="geometry">
            <mxPoint x="-10616.846499999998" y="270" as="sourcePoint" />
          </mxGeometry>
        </mxCell>
        <mxCell id="6mWmFTsLhO2SCgkzVdUd-20" value="footer" style="whiteSpace=wrap;html=1;" parent="6mWmFTsLhO2SCgkzVdUd-8" vertex="1">
          <mxGeometry x="1512.5100000000002" y="130" width="100" height="40" as="geometry" />
        </mxCell>
        <mxCell id="6mWmFTsLhO2SCgkzVdUd-93" value="" style="edgeStyle=elbowEdgeStyle;elbow=vertical;html=1;rounded=1;curved=0;sourcePerimeterSpacing=0;targetPerimeterSpacing=0;startSize=6;endSize=6;fontSize=12;" parent="6mWmFTsLhO2SCgkzVdUd-8" source="6mWmFTsLhO2SCgkzVdUd-9" target="6mWmFTsLhO2SCgkzVdUd-94" edge="1">
          <mxGeometry relative="1" as="geometry">
            <mxPoint x="-10476.846499999998" y="270" as="sourcePoint" />
          </mxGeometry>
        </mxCell>
        <mxCell id="6mWmFTsLhO2SCgkzVdUd-94" value="Search box" style="whiteSpace=wrap;html=1;" parent="6mWmFTsLhO2SCgkzVdUd-8" vertex="1">
          <mxGeometry x="1975.958" y="130" width="100" height="40" as="geometry" />
        </mxCell>
        <mxCell id="6mWmFTsLhO2SCgkzVdUd-99" value="" style="edgeStyle=elbowEdgeStyle;elbow=vertical;html=1;rounded=1;curved=0;sourcePerimeterSpacing=0;targetPerimeterSpacing=0;startSize=6;endSize=6;fontSize=12;" parent="6mWmFTsLhO2SCgkzVdUd-8" source="6mWmFTsLhO2SCgkzVdUd-9" target="6mWmFTsLhO2SCgkzVdUd-100" edge="1">
          <mxGeometry relative="1" as="geometry">
            <mxPoint x="-10266.8465" y="270" as="sourcePoint" />
          </mxGeometry>
        </mxCell>
        <mxCell id="6mWmFTsLhO2SCgkzVdUd-100" value="F&amp;amp;Q" style="whiteSpace=wrap;html=1;" parent="6mWmFTsLhO2SCgkzVdUd-8" vertex="1">
          <mxGeometry x="2115.958" y="130" width="100" height="40" as="geometry" />
        </mxCell>
        <mxCell id="6mWmFTsLhO2SCgkzVdUd-101" value="" style="edgeStyle=elbowEdgeStyle;elbow=vertical;html=1;rounded=1;curved=0;sourcePerimeterSpacing=0;targetPerimeterSpacing=0;startSize=6;endSize=6;fontSize=12;" parent="6mWmFTsLhO2SCgkzVdUd-8" source="6mWmFTsLhO2SCgkzVdUd-18" target="6mWmFTsLhO2SCgkzVdUd-102" edge="1">
          <mxGeometry relative="1" as="geometry">
            <mxPoint x="-9986.8465" y="270" as="sourcePoint" />
          </mxGeometry>
        </mxCell>
        <mxCell id="6mWmFTsLhO2SCgkzVdUd-102" value="username text box" style="whiteSpace=wrap;html=1;" parent="6mWmFTsLhO2SCgkzVdUd-8" vertex="1">
          <mxGeometry x="440" y="220" width="127.05" height="40" as="geometry" />
        </mxCell>
        <mxCell id="6mWmFTsLhO2SCgkzVdUd-113" value="" style="edgeStyle=elbowEdgeStyle;elbow=vertical;html=1;rounded=1;curved=0;sourcePerimeterSpacing=0;targetPerimeterSpacing=0;startSize=6;endSize=6;fontSize=12;" parent="6mWmFTsLhO2SCgkzVdUd-8" source="6mWmFTsLhO2SCgkzVdUd-18" target="6mWmFTsLhO2SCgkzVdUd-114" edge="1">
          <mxGeometry relative="1" as="geometry">
            <mxPoint x="-10126.6665" y="360" as="sourcePoint" />
          </mxGeometry>
        </mxCell>
        <mxCell id="6mWmFTsLhO2SCgkzVdUd-114" value="password text box" style="whiteSpace=wrap;html=1;" parent="6mWmFTsLhO2SCgkzVdUd-8" vertex="1">
          <mxGeometry x="607.05" y="220" width="127.05" height="40" as="geometry" />
        </mxCell>
        <mxCell id="6mWmFTsLhO2SCgkzVdUd-115" value="" style="edgeStyle=elbowEdgeStyle;elbow=vertical;html=1;rounded=1;curved=0;sourcePerimeterSpacing=0;targetPerimeterSpacing=0;startSize=6;endSize=6;fontSize=12;" parent="6mWmFTsLhO2SCgkzVdUd-8" source="6mWmFTsLhO2SCgkzVdUd-18" target="6mWmFTsLhO2SCgkzVdUd-116" edge="1">
          <mxGeometry relative="1" as="geometry">
            <mxPoint x="-9766.8465" y="360" as="sourcePoint" />
          </mxGeometry>
        </mxCell>
        <mxCell id="6mWmFTsLhO2SCgkzVdUd-116" value="email text box" style="whiteSpace=wrap;html=1;" parent="6mWmFTsLhO2SCgkzVdUd-8" vertex="1">
          <mxGeometry x="774.0999999999999" y="220" width="127.05" height="40" as="geometry" />
        </mxCell>
        <mxCell id="6mWmFTsLhO2SCgkzVdUd-117" value="" style="edgeStyle=elbowEdgeStyle;elbow=vertical;html=1;rounded=1;curved=0;sourcePerimeterSpacing=0;targetPerimeterSpacing=0;startSize=6;endSize=6;fontSize=12;" parent="6mWmFTsLhO2SCgkzVdUd-8" source="6mWmFTsLhO2SCgkzVdUd-18" target="6mWmFTsLhO2SCgkzVdUd-118" edge="1">
          <mxGeometry relative="1" as="geometry">
            <mxPoint x="-9340.1345" y="360" as="sourcePoint" />
          </mxGeometry>
        </mxCell>
        <mxCell id="6mWmFTsLhO2SCgkzVdUd-118" value="register button" style="whiteSpace=wrap;html=1;" parent="6mWmFTsLhO2SCgkzVdUd-8" vertex="1">
          <mxGeometry x="941.1499999999999" y="220" width="127.05" height="40" as="geometry" />
        </mxCell>
        <mxCell id="6mWmFTsLhO2SCgkzVdUd-119" value="" style="edgeStyle=elbowEdgeStyle;elbow=vertical;html=1;rounded=1;curved=0;sourcePerimeterSpacing=0;targetPerimeterSpacing=0;startSize=6;endSize=6;fontSize=12;" parent="6mWmFTsLhO2SCgkzVdUd-8" source="6mWmFTsLhO2SCgkzVdUd-20" target="6mWmFTsLhO2SCgkzVdUd-120" edge="1">
          <mxGeometry relative="1" as="geometry">
            <mxPoint x="-8707.5305" y="270" as="sourcePoint" />
          </mxGeometry>
        </mxCell>
        <mxCell id="6mWmFTsLhO2SCgkzVdUd-120" value="Renting guide" style="whiteSpace=wrap;html=1;" parent="6mWmFTsLhO2SCgkzVdUd-8" vertex="1">
          <mxGeometry x="1108.2000000000003" y="220" width="100" height="40" as="geometry" />
        </mxCell>
        <mxCell id="6mWmFTsLhO2SCgkzVdUd-121" value="" style="edgeStyle=elbowEdgeStyle;elbow=vertical;html=1;rounded=1;curved=0;sourcePerimeterSpacing=0;targetPerimeterSpacing=0;startSize=6;endSize=6;fontSize=12;" parent="6mWmFTsLhO2SCgkzVdUd-8" source="6mWmFTsLhO2SCgkzVdUd-20" target="6mWmFTsLhO2SCgkzVdUd-122" edge="1">
          <mxGeometry relative="1" as="geometry">
            <mxPoint x="-7952.250500000001" y="360" as="sourcePoint" />
          </mxGeometry>
        </mxCell>
        <mxCell id="6mWmFTsLhO2SCgkzVdUd-122" value="Rent house Contract Download" style="whiteSpace=wrap;html=1;" parent="6mWmFTsLhO2SCgkzVdUd-8" vertex="1">
          <mxGeometry x="1248.2000000000003" y="220" width="124.62" height="40" as="geometry" />
        </mxCell>
        <mxCell id="6mWmFTsLhO2SCgkzVdUd-123" value="" style="edgeStyle=elbowEdgeStyle;elbow=vertical;html=1;rounded=1;curved=0;sourcePerimeterSpacing=0;targetPerimeterSpacing=0;startSize=6;endSize=6;fontSize=12;" parent="6mWmFTsLhO2SCgkzVdUd-8" source="6mWmFTsLhO2SCgkzVdUd-20" target="6mWmFTsLhO2SCgkzVdUd-124" edge="1">
          <mxGeometry relative="1" as="geometry">
            <mxPoint x="-7364.5605000000005" y="360" as="sourcePoint" />
          </mxGeometry>
        </mxCell>
        <mxCell id="6mWmFTsLhO2SCgkzVdUd-124" value="Repport &amp;amp; Conrtact" style="whiteSpace=wrap;html=1;" parent="6mWmFTsLhO2SCgkzVdUd-8" vertex="1">
          <mxGeometry x="1524.8200000000002" y="220" width="100" height="40" as="geometry" />
        </mxCell>
        <mxCell id="6mWmFTsLhO2SCgkzVdUd-125" value="" style="edgeStyle=elbowEdgeStyle;elbow=vertical;html=1;rounded=1;curved=0;sourcePerimeterSpacing=0;targetPerimeterSpacing=0;startSize=6;endSize=6;fontSize=12;" parent="6mWmFTsLhO2SCgkzVdUd-8" source="6mWmFTsLhO2SCgkzVdUd-20" target="6mWmFTsLhO2SCgkzVdUd-126" edge="1">
          <mxGeometry relative="1" as="geometry">
            <mxPoint x="-6713.870500000001" y="360" as="sourcePoint" />
          </mxGeometry>
        </mxCell>
        <mxCell id="6mWmFTsLhO2SCgkzVdUd-126" value="gov.rent.com" style="whiteSpace=wrap;html=1;" parent="6mWmFTsLhO2SCgkzVdUd-8" vertex="1">
          <mxGeometry x="1776.8200000000002" y="220" width="100" height="40" as="geometry" />
        </mxCell>
        <mxCell id="6mWmFTsLhO2SCgkzVdUd-127" value="" style="edgeStyle=elbowEdgeStyle;elbow=vertical;html=1;rounded=1;curved=0;sourcePerimeterSpacing=0;targetPerimeterSpacing=0;startSize=6;endSize=6;fontSize=12;" parent="6mWmFTsLhO2SCgkzVdUd-8" source="6mWmFTsLhO2SCgkzVdUd-20" target="6mWmFTsLhO2SCgkzVdUd-128" edge="1">
          <mxGeometry relative="1" as="geometry">
            <mxPoint x="-6000.1805" y="360" as="sourcePoint" />
          </mxGeometry>
        </mxCell>
        <mxCell id="6mWmFTsLhO2SCgkzVdUd-128" value="moving.com" style="whiteSpace=wrap;html=1;" parent="6mWmFTsLhO2SCgkzVdUd-8" vertex="1">
          <mxGeometry x="1916.8200000000002" y="220" width="100" height="40" as="geometry" />
        </mxCell>
        <mxCell id="6mWmFTsLhO2SCgkzVdUd-129" value="" style="edgeStyle=elbowEdgeStyle;elbow=vertical;html=1;rounded=1;curved=0;sourcePerimeterSpacing=0;targetPerimeterSpacing=0;startSize=6;endSize=6;fontSize=12;" parent="6mWmFTsLhO2SCgkzVdUd-8" source="6mWmFTsLhO2SCgkzVdUd-124" target="6mWmFTsLhO2SCgkzVdUd-130" edge="1">
          <mxGeometry relative="1" as="geometry">
            <mxPoint x="-5223.490500000001" y="360" as="sourcePoint" />
          </mxGeometry>
        </mxCell>
        <mxCell id="6mWmFTsLhO2SCgkzVdUd-130" value="emil" style="whiteSpace=wrap;html=1;" parent="6mWmFTsLhO2SCgkzVdUd-8" vertex="1">
          <mxGeometry x="1384.8200000000002" y="310" width="100" height="40" as="geometry" />
        </mxCell>
        <mxCell id="6mWmFTsLhO2SCgkzVdUd-131" value="" style="edgeStyle=elbowEdgeStyle;elbow=vertical;html=1;rounded=1;curved=0;sourcePerimeterSpacing=0;targetPerimeterSpacing=0;startSize=6;endSize=6;fontSize=12;" parent="6mWmFTsLhO2SCgkzVdUd-8" source="6mWmFTsLhO2SCgkzVdUd-124" target="6mWmFTsLhO2SCgkzVdUd-132" edge="1">
          <mxGeometry relative="1" as="geometry">
            <mxPoint x="-5223.490500000001" y="450" as="sourcePoint" />
          </mxGeometry>
        </mxCell>
        <mxCell id="6mWmFTsLhO2SCgkzVdUd-132" value="facebook" style="whiteSpace=wrap;html=1;" parent="6mWmFTsLhO2SCgkzVdUd-8" vertex="1">
          <mxGeometry x="1524.8200000000002" y="310" width="100" height="40" as="geometry" />
        </mxCell>
        <mxCell id="6mWmFTsLhO2SCgkzVdUd-133" value="" style="edgeStyle=elbowEdgeStyle;elbow=vertical;html=1;rounded=1;curved=0;sourcePerimeterSpacing=0;targetPerimeterSpacing=0;startSize=6;endSize=6;fontSize=12;" parent="6mWmFTsLhO2SCgkzVdUd-8" source="6mWmFTsLhO2SCgkzVdUd-124" target="6mWmFTsLhO2SCgkzVdUd-134" edge="1">
          <mxGeometry relative="1" as="geometry">
            <mxPoint x="-4397.8005" y="450" as="sourcePoint" />
          </mxGeometry>
        </mxCell>
        <mxCell id="6mWmFTsLhO2SCgkzVdUd-134" value="X (Twitter)" style="whiteSpace=wrap;html=1;" parent="6mWmFTsLhO2SCgkzVdUd-8" vertex="1">
          <mxGeometry x="1664.8200000000002" y="310" width="100" height="40" as="geometry" />
        </mxCell>
        <mxCell id="6mWmFTsLhO2SCgkzVdUd-135" value="" style="edgeStyle=elbowEdgeStyle;elbow=vertical;html=1;rounded=1;curved=0;sourcePerimeterSpacing=0;targetPerimeterSpacing=0;startSize=6;endSize=6;fontSize=12;" parent="6mWmFTsLhO2SCgkzVdUd-8" source="6mWmFTsLhO2SCgkzVdUd-10" target="6mWmFTsLhO2SCgkzVdUd-136" edge="1">
          <mxGeometry relative="1" as="geometry">
            <mxPoint x="-2896.5060000000003" y="270" as="sourcePoint" />
          </mxGeometry>
        </mxCell>
        <mxCell id="6mWmFTsLhO2SCgkzVdUd-136" value="username text box" style="whiteSpace=wrap;html=1;" parent="6mWmFTsLhO2SCgkzVdUd-8" vertex="1">
          <mxGeometry x="20" y="220" width="100" height="40" as="geometry" />
        </mxCell>
        <mxCell id="6mWmFTsLhO2SCgkzVdUd-137" value="" style="edgeStyle=elbowEdgeStyle;elbow=vertical;html=1;rounded=1;curved=0;sourcePerimeterSpacing=0;targetPerimeterSpacing=0;startSize=6;endSize=6;fontSize=12;" parent="6mWmFTsLhO2SCgkzVdUd-8" source="6mWmFTsLhO2SCgkzVdUd-10" target="6mWmFTsLhO2SCgkzVdUd-138" edge="1">
          <mxGeometry relative="1" as="geometry">
            <mxPoint x="-2896.937" y="360" as="sourcePoint" />
          </mxGeometry>
        </mxCell>
        <mxCell id="6mWmFTsLhO2SCgkzVdUd-138" value="password text box" style="whiteSpace=wrap;html=1;" parent="6mWmFTsLhO2SCgkzVdUd-8" vertex="1">
          <mxGeometry x="160" y="220" width="100" height="40" as="geometry" />
        </mxCell>
        <mxCell id="6mWmFTsLhO2SCgkzVdUd-139" value="" style="edgeStyle=elbowEdgeStyle;elbow=vertical;html=1;rounded=1;curved=0;sourcePerimeterSpacing=0;targetPerimeterSpacing=0;startSize=6;endSize=6;fontSize=12;" parent="6mWmFTsLhO2SCgkzVdUd-8" source="6mWmFTsLhO2SCgkzVdUd-10" target="6mWmFTsLhO2SCgkzVdUd-140" edge="1">
          <mxGeometry relative="1" as="geometry">
            <mxPoint x="-1918.958" y="360" as="sourcePoint" />
          </mxGeometry>
        </mxCell>
        <mxCell id="6mWmFTsLhO2SCgkzVdUd-140" value="Login button" style="whiteSpace=wrap;html=1;" parent="6mWmFTsLhO2SCgkzVdUd-8" vertex="1">
          <mxGeometry x="300" y="220" width="100" height="40" as="geometry" />
        </mxCell>
        <mxCell id="6mWmFTsLhO2SCgkzVdUd-143" value="" style="edgeStyle=elbowEdgeStyle;elbow=vertical;html=1;rounded=1;curved=0;sourcePerimeterSpacing=0;targetPerimeterSpacing=0;startSize=6;endSize=6;fontSize=12;" parent="6mWmFTsLhO2SCgkzVdUd-8" source="6mWmFTsLhO2SCgkzVdUd-100" target="6mWmFTsLhO2SCgkzVdUd-144" edge="1">
          <mxGeometry relative="1" as="geometry">
            <mxPoint x="1120.021" y="360" as="sourcePoint" />
          </mxGeometry>
        </mxCell>
        <mxCell id="6mWmFTsLhO2SCgkzVdUd-144" value="Direct to doc page" style="whiteSpace=wrap;html=1;" parent="6mWmFTsLhO2SCgkzVdUd-8" vertex="1">
          <mxGeometry x="2115.958" y="220" width="100" height="40" as="geometry" />
        </mxCell>
      </root>
    </mxGraphModel>
  </diagram>
  <diagram id="PKQzQg2L_E5qWIGIoYwI" name="第 2 页">
    <mxGraphModel dx="1613" dy="1038" grid="0" gridSize="10" guides="1" tooltips="1" connect="1" arrows="1" fold="1" page="0" pageScale="1" pageWidth="827" pageHeight="1169" math="0" shadow="0">
      <root>
        <mxCell id="0" />
        <mxCell id="1" parent="0" />
        <mxCell id="PtXjF8p_FWv8pifJI37m-10" value="Vertical Tree Layout" style="swimlane;startSize=20;horizontal=1;childLayout=treeLayout;horizontalTree=0;sortEdges=1;resizable=0;containerType=tree;fontSize=12;" vertex="1" parent="1">
          <mxGeometry x="-376" y="-400" width="4585" height="460" as="geometry" />
        </mxCell>
        <mxCell id="PtXjF8p_FWv8pifJI37m-11" value="Search" style="whiteSpace=wrap;html=1;" vertex="1" parent="PtXjF8p_FWv8pifJI37m-10">
          <mxGeometry x="2184.75" y="40" width="100" height="40" as="geometry" />
        </mxCell>
        <mxCell id="PtXjF8p_FWv8pifJI37m-12" value="Basic condition block" style="whiteSpace=wrap;html=1;" vertex="1" parent="PtXjF8p_FWv8pifJI37m-10">
          <mxGeometry x="520.5" y="130" width="100" height="40" as="geometry" />
        </mxCell>
        <mxCell id="PtXjF8p_FWv8pifJI37m-13" value="" style="edgeStyle=elbowEdgeStyle;elbow=vertical;html=1;rounded=1;curved=0;sourcePerimeterSpacing=0;targetPerimeterSpacing=0;startSize=6;endSize=6;fontSize=12;" edge="1" parent="PtXjF8p_FWv8pifJI37m-10" source="PtXjF8p_FWv8pifJI37m-11" target="PtXjF8p_FWv8pifJI37m-12">
          <mxGeometry relative="1" as="geometry" />
        </mxCell>
        <mxCell id="8f1HhXyE-kR78pWUq_EE-3" value="" style="edgeStyle=elbowEdgeStyle;elbow=vertical;html=1;rounded=1;curved=0;sourcePerimeterSpacing=0;targetPerimeterSpacing=0;startSize=6;endSize=6;fontSize=12;" edge="1" target="8f1HhXyE-kR78pWUq_EE-4" source="PtXjF8p_FWv8pifJI37m-11" parent="PtXjF8p_FWv8pifJI37m-10">
          <mxGeometry relative="1" as="geometry">
            <mxPoint x="-54067.399999999994" y="-320" as="sourcePoint" />
          </mxGeometry>
        </mxCell>
        <mxCell id="8f1HhXyE-kR78pWUq_EE-4" value="Floor block" style="whiteSpace=wrap;html=1;" vertex="1" parent="PtXjF8p_FWv8pifJI37m-10">
          <mxGeometry x="1539" y="130" width="100" height="40" as="geometry" />
        </mxCell>
        <mxCell id="8f1HhXyE-kR78pWUq_EE-5" value="" style="edgeStyle=elbowEdgeStyle;elbow=vertical;html=1;rounded=1;curved=0;sourcePerimeterSpacing=0;targetPerimeterSpacing=0;startSize=6;endSize=6;fontSize=12;" edge="1" target="8f1HhXyE-kR78pWUq_EE-6" source="PtXjF8p_FWv8pifJI37m-11" parent="PtXjF8p_FWv8pifJI37m-10">
          <mxGeometry relative="1" as="geometry">
            <mxPoint x="-53927.399999999994" y="-320" as="sourcePoint" />
          </mxGeometry>
        </mxCell>
        <mxCell id="8f1HhXyE-kR78pWUq_EE-6" value="Equipment block" style="whiteSpace=wrap;html=1;" vertex="1" parent="PtXjF8p_FWv8pifJI37m-10">
          <mxGeometry x="2428" y="130" width="100" height="40" as="geometry" />
        </mxCell>
        <mxCell id="8f1HhXyE-kR78pWUq_EE-7" value="" style="edgeStyle=elbowEdgeStyle;elbow=vertical;html=1;rounded=1;curved=0;sourcePerimeterSpacing=0;targetPerimeterSpacing=0;startSize=6;endSize=6;fontSize=12;" edge="1" target="8f1HhXyE-kR78pWUq_EE-8" source="PtXjF8p_FWv8pifJI37m-11" parent="PtXjF8p_FWv8pifJI37m-10">
          <mxGeometry relative="1" as="geometry">
            <mxPoint x="-53717.399999999994" y="-320" as="sourcePoint" />
          </mxGeometry>
        </mxCell>
        <mxCell id="8f1HhXyE-kR78pWUq_EE-8" value="Feature block" style="whiteSpace=wrap;html=1;" vertex="1" parent="PtXjF8p_FWv8pifJI37m-10">
          <mxGeometry x="3849" y="130" width="100" height="40" as="geometry" />
        </mxCell>
        <mxCell id="8f1HhXyE-kR78pWUq_EE-9" value="" style="edgeStyle=elbowEdgeStyle;elbow=vertical;html=1;rounded=1;curved=0;sourcePerimeterSpacing=0;targetPerimeterSpacing=0;startSize=6;endSize=6;fontSize=12;" edge="1" target="8f1HhXyE-kR78pWUq_EE-10" source="PtXjF8p_FWv8pifJI37m-12" parent="PtXjF8p_FWv8pifJI37m-10">
          <mxGeometry relative="1" as="geometry">
            <mxPoint x="-53437.399999999994" y="-320" as="sourcePoint" />
          </mxGeometry>
        </mxCell>
        <mxCell id="8f1HhXyE-kR78pWUq_EE-10" value="Left block" style="whiteSpace=wrap;html=1;" vertex="1" parent="PtXjF8p_FWv8pifJI37m-10">
          <mxGeometry x="160" y="220" width="100" height="40" as="geometry" />
        </mxCell>
        <mxCell id="8f1HhXyE-kR78pWUq_EE-15" value="" style="edgeStyle=elbowEdgeStyle;elbow=vertical;html=1;rounded=1;curved=0;sourcePerimeterSpacing=0;targetPerimeterSpacing=0;startSize=6;endSize=6;fontSize=12;" edge="1" target="8f1HhXyE-kR78pWUq_EE-16" source="PtXjF8p_FWv8pifJI37m-12" parent="PtXjF8p_FWv8pifJI37m-10">
          <mxGeometry relative="1" as="geometry">
            <mxPoint x="-52912.399999999994" y="-230" as="sourcePoint" />
          </mxGeometry>
        </mxCell>
        <mxCell id="8f1HhXyE-kR78pWUq_EE-16" value="Righrt block" style="whiteSpace=wrap;html=1;" vertex="1" parent="PtXjF8p_FWv8pifJI37m-10">
          <mxGeometry x="881" y="220" width="100" height="40" as="geometry" />
        </mxCell>
        <mxCell id="8f1HhXyE-kR78pWUq_EE-19" value="" style="edgeStyle=elbowEdgeStyle;elbow=vertical;html=1;rounded=1;curved=0;sourcePerimeterSpacing=0;targetPerimeterSpacing=0;startSize=6;endSize=6;fontSize=12;" edge="1" target="8f1HhXyE-kR78pWUq_EE-20" source="8f1HhXyE-kR78pWUq_EE-10" parent="PtXjF8p_FWv8pifJI37m-10">
          <mxGeometry relative="1" as="geometry">
            <mxPoint x="-52352.399999999994" y="-230" as="sourcePoint" />
          </mxGeometry>
        </mxCell>
        <mxCell id="8f1HhXyE-kR78pWUq_EE-20" value="Area Scroll bar" style="whiteSpace=wrap;html=1;" vertex="1" parent="PtXjF8p_FWv8pifJI37m-10">
          <mxGeometry x="20" y="310" width="100" height="40" as="geometry" />
        </mxCell>
        <mxCell id="8f1HhXyE-kR78pWUq_EE-21" value="" style="edgeStyle=elbowEdgeStyle;elbow=vertical;html=1;rounded=1;curved=0;sourcePerimeterSpacing=0;targetPerimeterSpacing=0;startSize=6;endSize=6;fontSize=12;" edge="1" target="8f1HhXyE-kR78pWUq_EE-22" source="8f1HhXyE-kR78pWUq_EE-10" parent="PtXjF8p_FWv8pifJI37m-10">
          <mxGeometry relative="1" as="geometry">
            <mxPoint x="-52562.399999999994" y="-140" as="sourcePoint" />
          </mxGeometry>
        </mxCell>
        <mxCell id="8f1HhXyE-kR78pWUq_EE-22" value="City Scroll bar" style="whiteSpace=wrap;html=1;" vertex="1" parent="PtXjF8p_FWv8pifJI37m-10">
          <mxGeometry x="160" y="310" width="100" height="40" as="geometry" />
        </mxCell>
        <mxCell id="8f1HhXyE-kR78pWUq_EE-23" value="" style="edgeStyle=elbowEdgeStyle;elbow=vertical;html=1;rounded=1;curved=0;sourcePerimeterSpacing=0;targetPerimeterSpacing=0;startSize=6;endSize=6;fontSize=12;" edge="1" target="8f1HhXyE-kR78pWUq_EE-24" source="8f1HhXyE-kR78pWUq_EE-10" parent="PtXjF8p_FWv8pifJI37m-10">
          <mxGeometry relative="1" as="geometry">
            <mxPoint x="-51897.399999999994" y="-140" as="sourcePoint" />
          </mxGeometry>
        </mxCell>
        <mxCell id="8f1HhXyE-kR78pWUq_EE-24" value="District Scroll bar" style="whiteSpace=wrap;html=1;" vertex="1" parent="PtXjF8p_FWv8pifJI37m-10">
          <mxGeometry x="300" y="310" width="100" height="40" as="geometry" />
        </mxCell>
        <mxCell id="8f1HhXyE-kR78pWUq_EE-25" value="" style="edgeStyle=elbowEdgeStyle;elbow=vertical;html=1;rounded=1;curved=0;sourcePerimeterSpacing=0;targetPerimeterSpacing=0;startSize=6;endSize=6;fontSize=12;" edge="1" target="8f1HhXyE-kR78pWUq_EE-26" source="8f1HhXyE-kR78pWUq_EE-16" parent="PtXjF8p_FWv8pifJI37m-10">
          <mxGeometry relative="1" as="geometry">
            <mxPoint x="-50784.399999999994" y="-230" as="sourcePoint" />
          </mxGeometry>
        </mxCell>
        <mxCell id="8f1HhXyE-kR78pWUq_EE-26" value="Budget(row1)" style="whiteSpace=wrap;html=1;" vertex="1" parent="PtXjF8p_FWv8pifJI37m-10">
          <mxGeometry x="496" y="310" width="100" height="40" as="geometry" />
        </mxCell>
        <mxCell id="8f1HhXyE-kR78pWUq_EE-27" value="" style="edgeStyle=elbowEdgeStyle;elbow=vertical;html=1;rounded=1;curved=0;sourcePerimeterSpacing=0;targetPerimeterSpacing=0;startSize=6;endSize=6;fontSize=12;" edge="1" target="8f1HhXyE-kR78pWUq_EE-28" source="8f1HhXyE-kR78pWUq_EE-16" parent="PtXjF8p_FWv8pifJI37m-10">
          <mxGeometry relative="1" as="geometry">
            <mxPoint x="-50021.399999999994" y="-140" as="sourcePoint" />
          </mxGeometry>
        </mxCell>
        <mxCell id="8f1HhXyE-kR78pWUq_EE-28" value="Capacity(row2)" style="whiteSpace=wrap;html=1;" vertex="1" parent="PtXjF8p_FWv8pifJI37m-10">
          <mxGeometry x="776" y="310" width="100" height="40" as="geometry" />
        </mxCell>
        <mxCell id="8f1HhXyE-kR78pWUq_EE-29" value="" style="edgeStyle=elbowEdgeStyle;elbow=vertical;html=1;rounded=1;curved=0;sourcePerimeterSpacing=0;targetPerimeterSpacing=0;startSize=6;endSize=6;fontSize=12;" edge="1" target="8f1HhXyE-kR78pWUq_EE-30" source="8f1HhXyE-kR78pWUq_EE-16" parent="PtXjF8p_FWv8pifJI37m-10">
          <mxGeometry relative="1" as="geometry">
            <mxPoint x="-49321.399999999994" y="-140" as="sourcePoint" />
          </mxGeometry>
        </mxCell>
        <mxCell id="8f1HhXyE-kR78pWUq_EE-30" value="Room Typer(row3)" style="whiteSpace=wrap;html=1;" vertex="1" parent="PtXjF8p_FWv8pifJI37m-10">
          <mxGeometry x="1266" y="310" width="100" height="40" as="geometry" />
        </mxCell>
        <mxCell id="8f1HhXyE-kR78pWUq_EE-31" value="" style="edgeStyle=elbowEdgeStyle;elbow=vertical;html=1;rounded=1;curved=0;sourcePerimeterSpacing=0;targetPerimeterSpacing=0;startSize=6;endSize=6;fontSize=12;" edge="1" target="8f1HhXyE-kR78pWUq_EE-32" source="8f1HhXyE-kR78pWUq_EE-26" parent="PtXjF8p_FWv8pifJI37m-10">
          <mxGeometry relative="1" as="geometry">
            <mxPoint x="-48540.899999999994" y="-140" as="sourcePoint" />
          </mxGeometry>
        </mxCell>
        <mxCell id="8f1HhXyE-kR78pWUq_EE-32" value="min budget num" style="whiteSpace=wrap;html=1;" vertex="1" parent="PtXjF8p_FWv8pifJI37m-10">
          <mxGeometry x="426" y="400" width="100" height="40" as="geometry" />
        </mxCell>
        <mxCell id="8f1HhXyE-kR78pWUq_EE-33" value="" style="edgeStyle=elbowEdgeStyle;elbow=vertical;html=1;rounded=1;curved=0;sourcePerimeterSpacing=0;targetPerimeterSpacing=0;startSize=6;endSize=6;fontSize=12;" edge="1" target="8f1HhXyE-kR78pWUq_EE-34" source="8f1HhXyE-kR78pWUq_EE-26" parent="PtXjF8p_FWv8pifJI37m-10">
          <mxGeometry relative="1" as="geometry">
            <mxPoint x="-48680.899999999994" y="-50" as="sourcePoint" />
          </mxGeometry>
        </mxCell>
        <mxCell id="8f1HhXyE-kR78pWUq_EE-34" value="max budget num" style="whiteSpace=wrap;html=1;" vertex="1" parent="PtXjF8p_FWv8pifJI37m-10">
          <mxGeometry x="566" y="400" width="100" height="40" as="geometry" />
        </mxCell>
        <mxCell id="8f1HhXyE-kR78pWUq_EE-35" value="" style="edgeStyle=elbowEdgeStyle;elbow=vertical;html=1;rounded=1;curved=0;sourcePerimeterSpacing=0;targetPerimeterSpacing=0;startSize=6;endSize=6;fontSize=12;" edge="1" target="8f1HhXyE-kR78pWUq_EE-36" source="8f1HhXyE-kR78pWUq_EE-28" parent="PtXjF8p_FWv8pifJI37m-10">
          <mxGeometry relative="1" as="geometry">
            <mxPoint x="-47665.899999999994" y="-140" as="sourcePoint" />
          </mxGeometry>
        </mxCell>
        <mxCell id="8f1HhXyE-kR78pWUq_EE-36" value="min Capacity" style="whiteSpace=wrap;html=1;" vertex="1" parent="PtXjF8p_FWv8pifJI37m-10">
          <mxGeometry x="706" y="400" width="100" height="40" as="geometry" />
        </mxCell>
        <mxCell id="8f1HhXyE-kR78pWUq_EE-37" value="" style="edgeStyle=elbowEdgeStyle;elbow=vertical;html=1;rounded=1;curved=0;sourcePerimeterSpacing=0;targetPerimeterSpacing=0;startSize=6;endSize=6;fontSize=12;" edge="1" target="8f1HhXyE-kR78pWUq_EE-38" source="8f1HhXyE-kR78pWUq_EE-28" parent="PtXjF8p_FWv8pifJI37m-10">
          <mxGeometry relative="1" as="geometry">
            <mxPoint x="-47631.95" y="-50" as="sourcePoint" />
          </mxGeometry>
        </mxCell>
        <mxCell id="8f1HhXyE-kR78pWUq_EE-38" value="max Capacity" style="whiteSpace=wrap;html=1;" vertex="1" parent="PtXjF8p_FWv8pifJI37m-10">
          <mxGeometry x="846" y="400" width="100" height="40" as="geometry" />
        </mxCell>
        <mxCell id="8f1HhXyE-kR78pWUq_EE-39" value="" style="edgeStyle=elbowEdgeStyle;elbow=vertical;html=1;rounded=1;curved=0;sourcePerimeterSpacing=0;targetPerimeterSpacing=0;startSize=6;endSize=6;fontSize=12;" edge="1" target="8f1HhXyE-kR78pWUq_EE-40" source="8f1HhXyE-kR78pWUq_EE-30" parent="PtXjF8p_FWv8pifJI37m-10">
          <mxGeometry relative="1" as="geometry">
            <mxPoint x="-46730.7" y="-140" as="sourcePoint" />
          </mxGeometry>
        </mxCell>
        <mxCell id="8f1HhXyE-kR78pWUq_EE-40" value="Suite" style="whiteSpace=wrap;html=1;" vertex="1" parent="PtXjF8p_FWv8pifJI37m-10">
          <mxGeometry x="986" y="400" width="100" height="40" as="geometry" />
        </mxCell>
        <mxCell id="8f1HhXyE-kR78pWUq_EE-41" value="" style="edgeStyle=elbowEdgeStyle;elbow=vertical;html=1;rounded=1;curved=0;sourcePerimeterSpacing=0;targetPerimeterSpacing=0;startSize=6;endSize=6;fontSize=12;" edge="1" target="8f1HhXyE-kR78pWUq_EE-42" source="8f1HhXyE-kR78pWUq_EE-30" parent="PtXjF8p_FWv8pifJI37m-10">
          <mxGeometry relative="1" as="geometry">
            <mxPoint x="-46486.75" y="-50" as="sourcePoint" />
          </mxGeometry>
        </mxCell>
        <mxCell id="8f1HhXyE-kR78pWUq_EE-42" value="room to share" style="whiteSpace=wrap;html=1;" vertex="1" parent="PtXjF8p_FWv8pifJI37m-10">
          <mxGeometry x="1126" y="400" width="100" height="40" as="geometry" />
        </mxCell>
        <mxCell id="8f1HhXyE-kR78pWUq_EE-43" value="" style="edgeStyle=elbowEdgeStyle;elbow=vertical;html=1;rounded=1;curved=0;sourcePerimeterSpacing=0;targetPerimeterSpacing=0;startSize=6;endSize=6;fontSize=12;" edge="1" target="8f1HhXyE-kR78pWUq_EE-44" source="8f1HhXyE-kR78pWUq_EE-30" parent="PtXjF8p_FWv8pifJI37m-10">
          <mxGeometry relative="1" as="geometry">
            <mxPoint x="-45463" y="-50" as="sourcePoint" />
          </mxGeometry>
        </mxCell>
        <mxCell id="8f1HhXyE-kR78pWUq_EE-44" value="Apartment" style="whiteSpace=wrap;html=1;" vertex="1" parent="PtXjF8p_FWv8pifJI37m-10">
          <mxGeometry x="1266" y="400" width="100" height="40" as="geometry" />
        </mxCell>
        <mxCell id="8f1HhXyE-kR78pWUq_EE-45" value="" style="edgeStyle=elbowEdgeStyle;elbow=vertical;html=1;rounded=1;curved=0;sourcePerimeterSpacing=0;targetPerimeterSpacing=0;startSize=6;endSize=6;fontSize=12;" edge="1" target="8f1HhXyE-kR78pWUq_EE-46" source="8f1HhXyE-kR78pWUq_EE-30" parent="PtXjF8p_FWv8pifJI37m-10">
          <mxGeometry relative="1" as="geometry">
            <mxPoint x="-44399" y="-50" as="sourcePoint" />
          </mxGeometry>
        </mxCell>
        <mxCell id="8f1HhXyE-kR78pWUq_EE-46" value="house" style="whiteSpace=wrap;html=1;" vertex="1" parent="PtXjF8p_FWv8pifJI37m-10">
          <mxGeometry x="1406" y="400" width="100" height="40" as="geometry" />
        </mxCell>
        <mxCell id="8f1HhXyE-kR78pWUq_EE-47" value="" style="edgeStyle=elbowEdgeStyle;elbow=vertical;html=1;rounded=1;curved=0;sourcePerimeterSpacing=0;targetPerimeterSpacing=0;startSize=6;endSize=6;fontSize=12;" edge="1" target="8f1HhXyE-kR78pWUq_EE-48" source="8f1HhXyE-kR78pWUq_EE-30" parent="PtXjF8p_FWv8pifJI37m-10">
          <mxGeometry relative="1" as="geometry">
            <mxPoint x="-43294.75" y="-50" as="sourcePoint" />
          </mxGeometry>
        </mxCell>
        <mxCell id="8f1HhXyE-kR78pWUq_EE-48" value="Other" style="whiteSpace=wrap;html=1;" vertex="1" parent="PtXjF8p_FWv8pifJI37m-10">
          <mxGeometry x="1546" y="400" width="100" height="40" as="geometry" />
        </mxCell>
        <mxCell id="8f1HhXyE-kR78pWUq_EE-51" value="" style="edgeStyle=elbowEdgeStyle;elbow=vertical;html=1;rounded=1;curved=0;sourcePerimeterSpacing=0;targetPerimeterSpacing=0;startSize=6;endSize=6;fontSize=12;" edge="1" target="8f1HhXyE-kR78pWUq_EE-52" source="8f1HhXyE-kR78pWUq_EE-4" parent="PtXjF8p_FWv8pifJI37m-10">
          <mxGeometry relative="1" as="geometry">
            <mxPoint x="-41015.95" y="-320" as="sourcePoint" />
          </mxGeometry>
        </mxCell>
        <mxCell id="8f1HhXyE-kR78pWUq_EE-52" value="1~3 F" style="whiteSpace=wrap;html=1;" vertex="1" parent="PtXjF8p_FWv8pifJI37m-10">
          <mxGeometry x="1329" y="220" width="100" height="40" as="geometry" />
        </mxCell>
        <mxCell id="8f1HhXyE-kR78pWUq_EE-53" value="" style="edgeStyle=elbowEdgeStyle;elbow=vertical;html=1;rounded=1;curved=0;sourcePerimeterSpacing=0;targetPerimeterSpacing=0;startSize=6;endSize=6;fontSize=12;" edge="1" target="8f1HhXyE-kR78pWUq_EE-54" source="8f1HhXyE-kR78pWUq_EE-4" parent="PtXjF8p_FWv8pifJI37m-10">
          <mxGeometry relative="1" as="geometry">
            <mxPoint x="-39707.25" y="-230" as="sourcePoint" />
          </mxGeometry>
        </mxCell>
        <mxCell id="8f1HhXyE-kR78pWUq_EE-54" value="4~6F" style="whiteSpace=wrap;html=1;" vertex="1" parent="PtXjF8p_FWv8pifJI37m-10">
          <mxGeometry x="1469" y="220" width="100" height="40" as="geometry" />
        </mxCell>
        <mxCell id="8f1HhXyE-kR78pWUq_EE-55" value="" style="edgeStyle=elbowEdgeStyle;elbow=vertical;html=1;rounded=1;curved=0;sourcePerimeterSpacing=0;targetPerimeterSpacing=0;startSize=6;endSize=6;fontSize=12;" edge="1" target="8f1HhXyE-kR78pWUq_EE-56" source="8f1HhXyE-kR78pWUq_EE-4" parent="PtXjF8p_FWv8pifJI37m-10">
          <mxGeometry relative="1" as="geometry">
            <mxPoint x="-38592.5" y="-230" as="sourcePoint" />
          </mxGeometry>
        </mxCell>
        <mxCell id="8f1HhXyE-kR78pWUq_EE-56" value="7~12F" style="whiteSpace=wrap;html=1;" vertex="1" parent="PtXjF8p_FWv8pifJI37m-10">
          <mxGeometry x="1609" y="220" width="100" height="40" as="geometry" />
        </mxCell>
        <mxCell id="8f1HhXyE-kR78pWUq_EE-57" value="" style="edgeStyle=elbowEdgeStyle;elbow=vertical;html=1;rounded=1;curved=0;sourcePerimeterSpacing=0;targetPerimeterSpacing=0;startSize=6;endSize=6;fontSize=12;" edge="1" target="8f1HhXyE-kR78pWUq_EE-58" source="8f1HhXyE-kR78pWUq_EE-4" parent="PtXjF8p_FWv8pifJI37m-10">
          <mxGeometry relative="1" as="geometry">
            <mxPoint x="-37414.75" y="-230" as="sourcePoint" />
          </mxGeometry>
        </mxCell>
        <mxCell id="8f1HhXyE-kR78pWUq_EE-58" value="higher than 12F" style="whiteSpace=wrap;html=1;" vertex="1" parent="PtXjF8p_FWv8pifJI37m-10">
          <mxGeometry x="1749" y="220" width="100" height="40" as="geometry" />
        </mxCell>
        <mxCell id="8f1HhXyE-kR78pWUq_EE-59" value="" style="edgeStyle=elbowEdgeStyle;elbow=vertical;html=1;rounded=1;curved=0;sourcePerimeterSpacing=0;targetPerimeterSpacing=0;startSize=6;endSize=6;fontSize=12;" edge="1" target="8f1HhXyE-kR78pWUq_EE-60" source="8f1HhXyE-kR78pWUq_EE-6" parent="PtXjF8p_FWv8pifJI37m-10">
          <mxGeometry relative="1" as="geometry">
            <mxPoint x="-36459" y="-320" as="sourcePoint" />
          </mxGeometry>
        </mxCell>
        <mxCell id="8f1HhXyE-kR78pWUq_EE-60" value="row1" style="whiteSpace=wrap;html=1;" vertex="1" parent="PtXjF8p_FWv8pifJI37m-10">
          <mxGeometry x="2113" y="220" width="100" height="40" as="geometry" />
        </mxCell>
        <mxCell id="8f1HhXyE-kR78pWUq_EE-61" value="" style="edgeStyle=elbowEdgeStyle;elbow=vertical;html=1;rounded=1;curved=0;sourcePerimeterSpacing=0;targetPerimeterSpacing=0;startSize=6;endSize=6;fontSize=12;" edge="1" target="8f1HhXyE-kR78pWUq_EE-62" source="8f1HhXyE-kR78pWUq_EE-6" parent="PtXjF8p_FWv8pifJI37m-10">
          <mxGeometry relative="1" as="geometry">
            <mxPoint x="-34590.25" y="-230" as="sourcePoint" />
          </mxGeometry>
        </mxCell>
        <mxCell id="8f1HhXyE-kR78pWUq_EE-62" value="row2" style="whiteSpace=wrap;html=1;" vertex="1" parent="PtXjF8p_FWv8pifJI37m-10">
          <mxGeometry x="2743" y="220" width="100" height="40" as="geometry" />
        </mxCell>
        <mxCell id="8f1HhXyE-kR78pWUq_EE-63" value="" style="edgeStyle=elbowEdgeStyle;elbow=vertical;html=1;rounded=1;curved=0;sourcePerimeterSpacing=0;targetPerimeterSpacing=0;startSize=6;endSize=6;fontSize=12;" edge="1" target="8f1HhXyE-kR78pWUq_EE-64" source="8f1HhXyE-kR78pWUq_EE-60" parent="PtXjF8p_FWv8pifJI37m-10">
          <mxGeometry relative="1" as="geometry">
            <mxPoint x="-33265.5" y="-230" as="sourcePoint" />
          </mxGeometry>
        </mxCell>
        <mxCell id="8f1HhXyE-kR78pWUq_EE-64" value="Air conditioner" style="whiteSpace=wrap;html=1;" vertex="1" parent="PtXjF8p_FWv8pifJI37m-10">
          <mxGeometry x="1833" y="310" width="100" height="40" as="geometry" />
        </mxCell>
        <mxCell id="8f1HhXyE-kR78pWUq_EE-65" value="" style="edgeStyle=elbowEdgeStyle;elbow=vertical;html=1;rounded=1;curved=0;sourcePerimeterSpacing=0;targetPerimeterSpacing=0;startSize=6;endSize=6;fontSize=12;" edge="1" target="8f1HhXyE-kR78pWUq_EE-66" source="8f1HhXyE-kR78pWUq_EE-60" parent="PtXjF8p_FWv8pifJI37m-10">
          <mxGeometry relative="1" as="geometry">
            <mxPoint x="-33335.5" y="-140" as="sourcePoint" />
          </mxGeometry>
        </mxCell>
        <mxCell id="8f1HhXyE-kR78pWUq_EE-66" value="Bed" style="whiteSpace=wrap;html=1;" vertex="1" parent="PtXjF8p_FWv8pifJI37m-10">
          <mxGeometry x="1973" y="310" width="100" height="40" as="geometry" />
        </mxCell>
        <mxCell id="8f1HhXyE-kR78pWUq_EE-67" value="" style="edgeStyle=elbowEdgeStyle;elbow=vertical;html=1;rounded=1;curved=0;sourcePerimeterSpacing=0;targetPerimeterSpacing=0;startSize=6;endSize=6;fontSize=12;" edge="1" target="8f1HhXyE-kR78pWUq_EE-68" source="8f1HhXyE-kR78pWUq_EE-60" parent="PtXjF8p_FWv8pifJI37m-10">
          <mxGeometry relative="1" as="geometry">
            <mxPoint x="-31961.75" y="-140" as="sourcePoint" />
          </mxGeometry>
        </mxCell>
        <mxCell id="8f1HhXyE-kR78pWUq_EE-68" value="Fridge" style="whiteSpace=wrap;html=1;" vertex="1" parent="PtXjF8p_FWv8pifJI37m-10">
          <mxGeometry x="2113" y="310" width="100" height="40" as="geometry" />
        </mxCell>
        <mxCell id="8f1HhXyE-kR78pWUq_EE-69" value="" style="edgeStyle=elbowEdgeStyle;elbow=vertical;html=1;rounded=1;curved=0;sourcePerimeterSpacing=0;targetPerimeterSpacing=0;startSize=6;endSize=6;fontSize=12;" edge="1" target="8f1HhXyE-kR78pWUq_EE-70" source="8f1HhXyE-kR78pWUq_EE-60" parent="PtXjF8p_FWv8pifJI37m-10">
          <mxGeometry relative="1" as="geometry">
            <mxPoint x="-30534.8" y="-140" as="sourcePoint" />
          </mxGeometry>
        </mxCell>
        <mxCell id="8f1HhXyE-kR78pWUq_EE-70" value="Internet" style="whiteSpace=wrap;html=1;" vertex="1" parent="PtXjF8p_FWv8pifJI37m-10">
          <mxGeometry x="2253" y="310" width="100" height="40" as="geometry" />
        </mxCell>
        <mxCell id="8f1HhXyE-kR78pWUq_EE-71" value="" style="edgeStyle=elbowEdgeStyle;elbow=vertical;html=1;rounded=1;curved=0;sourcePerimeterSpacing=0;targetPerimeterSpacing=0;startSize=6;endSize=6;fontSize=12;" edge="1" target="8f1HhXyE-kR78pWUq_EE-72" source="8f1HhXyE-kR78pWUq_EE-60" parent="PtXjF8p_FWv8pifJI37m-10">
          <mxGeometry relative="1" as="geometry">
            <mxPoint x="-29054.65" y="-140" as="sourcePoint" />
          </mxGeometry>
        </mxCell>
        <mxCell id="8f1HhXyE-kR78pWUq_EE-72" value="washing machine" style="whiteSpace=wrap;html=1;" vertex="1" parent="PtXjF8p_FWv8pifJI37m-10">
          <mxGeometry x="2393" y="310" width="100" height="40" as="geometry" />
        </mxCell>
        <mxCell id="8f1HhXyE-kR78pWUq_EE-73" value="" style="edgeStyle=elbowEdgeStyle;elbow=vertical;html=1;rounded=1;curved=0;sourcePerimeterSpacing=0;targetPerimeterSpacing=0;startSize=6;endSize=6;fontSize=12;" edge="1" target="8f1HhXyE-kR78pWUq_EE-74" source="8f1HhXyE-kR78pWUq_EE-62" parent="PtXjF8p_FWv8pifJI37m-10">
          <mxGeometry relative="1" as="geometry">
            <mxPoint x="-27339.3" y="-230" as="sourcePoint" />
          </mxGeometry>
        </mxCell>
        <mxCell id="8f1HhXyE-kR78pWUq_EE-74" value="water heater(electro)" style="whiteSpace=wrap;html=1;" vertex="1" parent="PtXjF8p_FWv8pifJI37m-10">
          <mxGeometry x="2533" y="310" width="100" height="40" as="geometry" />
        </mxCell>
        <mxCell id="8f1HhXyE-kR78pWUq_EE-75" value="" style="edgeStyle=elbowEdgeStyle;elbow=vertical;html=1;rounded=1;curved=0;sourcePerimeterSpacing=0;targetPerimeterSpacing=0;startSize=6;endSize=6;fontSize=12;" edge="1" target="8f1HhXyE-kR78pWUq_EE-76" source="8f1HhXyE-kR78pWUq_EE-62" parent="PtXjF8p_FWv8pifJI37m-10">
          <mxGeometry relative="1" as="geometry">
            <mxPoint x="-25570.75" y="-140" as="sourcePoint" />
          </mxGeometry>
        </mxCell>
        <mxCell id="8f1HhXyE-kR78pWUq_EE-76" value="water heater(gas)" style="whiteSpace=wrap;html=1;" vertex="1" parent="PtXjF8p_FWv8pifJI37m-10">
          <mxGeometry x="2673" y="310" width="100" height="40" as="geometry" />
        </mxCell>
        <mxCell id="8f1HhXyE-kR78pWUq_EE-77" value="" style="edgeStyle=elbowEdgeStyle;elbow=vertical;html=1;rounded=1;curved=0;sourcePerimeterSpacing=0;targetPerimeterSpacing=0;startSize=6;endSize=6;fontSize=12;" edge="1" target="8f1HhXyE-kR78pWUq_EE-78" source="8f1HhXyE-kR78pWUq_EE-62" parent="PtXjF8p_FWv8pifJI37m-10">
          <mxGeometry relative="1" as="geometry">
            <mxPoint x="-23945" y="-140" as="sourcePoint" />
          </mxGeometry>
        </mxCell>
        <mxCell id="8f1HhXyE-kR78pWUq_EE-78" value="table" style="whiteSpace=wrap;html=1;" vertex="1" parent="PtXjF8p_FWv8pifJI37m-10">
          <mxGeometry x="2813" y="310" width="100" height="40" as="geometry" />
        </mxCell>
        <mxCell id="8f1HhXyE-kR78pWUq_EE-79" value="" style="edgeStyle=elbowEdgeStyle;elbow=vertical;html=1;rounded=1;curved=0;sourcePerimeterSpacing=0;targetPerimeterSpacing=0;startSize=6;endSize=6;fontSize=12;" edge="1" target="8f1HhXyE-kR78pWUq_EE-80" source="8f1HhXyE-kR78pWUq_EE-62" parent="PtXjF8p_FWv8pifJI37m-10">
          <mxGeometry relative="1" as="geometry">
            <mxPoint x="-22287.75" y="-140" as="sourcePoint" />
          </mxGeometry>
        </mxCell>
        <mxCell id="8f1HhXyE-kR78pWUq_EE-80" value="cabinet" style="whiteSpace=wrap;html=1;" vertex="1" parent="PtXjF8p_FWv8pifJI37m-10">
          <mxGeometry x="2953" y="310" width="100" height="40" as="geometry" />
        </mxCell>
        <mxCell id="8f1HhXyE-kR78pWUq_EE-81" value="" style="edgeStyle=elbowEdgeStyle;elbow=vertical;html=1;rounded=1;curved=0;sourcePerimeterSpacing=0;targetPerimeterSpacing=0;startSize=6;endSize=6;fontSize=12;" edge="1" target="8f1HhXyE-kR78pWUq_EE-82" source="8f1HhXyE-kR78pWUq_EE-8" parent="PtXjF8p_FWv8pifJI37m-10">
          <mxGeometry relative="1" as="geometry">
            <mxPoint x="-21672" y="-320" as="sourcePoint" />
          </mxGeometry>
        </mxCell>
        <mxCell id="8f1HhXyE-kR78pWUq_EE-82" value="Row1" style="whiteSpace=wrap;html=1;" vertex="1" parent="PtXjF8p_FWv8pifJI37m-10">
          <mxGeometry x="3233" y="220" width="100" height="40" as="geometry" />
        </mxCell>
        <mxCell id="8f1HhXyE-kR78pWUq_EE-83" value="" style="edgeStyle=elbowEdgeStyle;elbow=vertical;html=1;rounded=1;curved=0;sourcePerimeterSpacing=0;targetPerimeterSpacing=0;startSize=6;endSize=6;fontSize=12;" edge="1" target="8f1HhXyE-kR78pWUq_EE-84" source="8f1HhXyE-kR78pWUq_EE-8" parent="PtXjF8p_FWv8pifJI37m-10">
          <mxGeometry relative="1" as="geometry">
            <mxPoint x="-18640.75" y="-230" as="sourcePoint" />
          </mxGeometry>
        </mxCell>
        <mxCell id="8f1HhXyE-kR78pWUq_EE-84" value="Row 2" style="whiteSpace=wrap;html=1;" vertex="1" parent="PtXjF8p_FWv8pifJI37m-10">
          <mxGeometry x="3653" y="220" width="100" height="40" as="geometry" />
        </mxCell>
        <mxCell id="8f1HhXyE-kR78pWUq_EE-85" value="" style="edgeStyle=elbowEdgeStyle;elbow=vertical;html=1;rounded=1;curved=0;sourcePerimeterSpacing=0;targetPerimeterSpacing=0;startSize=6;endSize=6;fontSize=12;" edge="1" target="8f1HhXyE-kR78pWUq_EE-86" source="8f1HhXyE-kR78pWUq_EE-8" parent="PtXjF8p_FWv8pifJI37m-10">
          <mxGeometry relative="1" as="geometry">
            <mxPoint x="-16805" y="-230" as="sourcePoint" />
          </mxGeometry>
        </mxCell>
        <mxCell id="8f1HhXyE-kR78pWUq_EE-86" value="super market" style="whiteSpace=wrap;html=1;" vertex="1" parent="PtXjF8p_FWv8pifJI37m-10">
          <mxGeometry x="3905" y="220" width="100" height="40" as="geometry" />
        </mxCell>
        <mxCell id="8f1HhXyE-kR78pWUq_EE-87" value="" style="edgeStyle=elbowEdgeStyle;elbow=vertical;html=1;rounded=1;curved=0;sourcePerimeterSpacing=0;targetPerimeterSpacing=0;startSize=6;endSize=6;fontSize=12;" edge="1" target="8f1HhXyE-kR78pWUq_EE-88" source="8f1HhXyE-kR78pWUq_EE-8" parent="PtXjF8p_FWv8pifJI37m-10">
          <mxGeometry relative="1" as="geometry">
            <mxPoint x="-14934.25" y="-230" as="sourcePoint" />
          </mxGeometry>
        </mxCell>
        <mxCell id="8f1HhXyE-kR78pWUq_EE-88" value="kitchen" style="whiteSpace=wrap;html=1;" vertex="1" parent="PtXjF8p_FWv8pifJI37m-10">
          <mxGeometry x="4045" y="220" width="100" height="40" as="geometry" />
        </mxCell>
        <mxCell id="8f1HhXyE-kR78pWUq_EE-89" value="" style="edgeStyle=elbowEdgeStyle;elbow=vertical;html=1;rounded=1;curved=0;sourcePerimeterSpacing=0;targetPerimeterSpacing=0;startSize=6;endSize=6;fontSize=12;" edge="1" target="8f1HhXyE-kR78pWUq_EE-90" source="8f1HhXyE-kR78pWUq_EE-8" parent="PtXjF8p_FWv8pifJI37m-10">
          <mxGeometry relative="1" as="geometry">
            <mxPoint x="-13028.5" y="-230" as="sourcePoint" />
          </mxGeometry>
        </mxCell>
        <mxCell id="8f1HhXyE-kR78pWUq_EE-90" value="parking" style="whiteSpace=wrap;html=1;" vertex="1" parent="PtXjF8p_FWv8pifJI37m-10">
          <mxGeometry x="4185" y="220" width="100" height="40" as="geometry" />
        </mxCell>
        <mxCell id="8f1HhXyE-kR78pWUq_EE-91" value="" style="edgeStyle=elbowEdgeStyle;elbow=vertical;html=1;rounded=1;curved=0;sourcePerimeterSpacing=0;targetPerimeterSpacing=0;startSize=6;endSize=6;fontSize=12;" edge="1" target="8f1HhXyE-kR78pWUq_EE-92" source="8f1HhXyE-kR78pWUq_EE-8" parent="PtXjF8p_FWv8pifJI37m-10">
          <mxGeometry relative="1" as="geometry">
            <mxPoint x="-11087.75" y="-230" as="sourcePoint" />
          </mxGeometry>
        </mxCell>
        <mxCell id="8f1HhXyE-kR78pWUq_EE-92" value="elevator" style="whiteSpace=wrap;html=1;" vertex="1" parent="PtXjF8p_FWv8pifJI37m-10">
          <mxGeometry x="4325" y="220" width="100" height="40" as="geometry" />
        </mxCell>
        <mxCell id="8f1HhXyE-kR78pWUq_EE-93" value="" style="edgeStyle=elbowEdgeStyle;elbow=vertical;html=1;rounded=1;curved=0;sourcePerimeterSpacing=0;targetPerimeterSpacing=0;startSize=6;endSize=6;fontSize=12;" edge="1" target="8f1HhXyE-kR78pWUq_EE-94" source="8f1HhXyE-kR78pWUq_EE-8" parent="PtXjF8p_FWv8pifJI37m-10">
          <mxGeometry relative="1" as="geometry">
            <mxPoint x="-9112" y="-230" as="sourcePoint" />
          </mxGeometry>
        </mxCell>
        <mxCell id="8f1HhXyE-kR78pWUq_EE-94" value="MRT" style="whiteSpace=wrap;html=1;" vertex="1" parent="PtXjF8p_FWv8pifJI37m-10">
          <mxGeometry x="4465" y="220" width="100" height="40" as="geometry" />
        </mxCell>
        <mxCell id="8f1HhXyE-kR78pWUq_EE-95" value="" style="edgeStyle=elbowEdgeStyle;elbow=vertical;html=1;rounded=1;curved=0;sourcePerimeterSpacing=0;targetPerimeterSpacing=0;startSize=6;endSize=6;fontSize=12;" edge="1" target="8f1HhXyE-kR78pWUq_EE-96" source="8f1HhXyE-kR78pWUq_EE-82" parent="PtXjF8p_FWv8pifJI37m-10">
          <mxGeometry relative="1" as="geometry">
            <mxPoint x="-7101.25" y="-230" as="sourcePoint" />
          </mxGeometry>
        </mxCell>
        <mxCell id="8f1HhXyE-kR78pWUq_EE-96" value="Row1" style="whiteSpace=wrap;html=1;" vertex="1" parent="PtXjF8p_FWv8pifJI37m-10">
          <mxGeometry x="3093" y="310" width="100" height="40" as="geometry" />
        </mxCell>
        <mxCell id="8f1HhXyE-kR78pWUq_EE-97" value="" style="edgeStyle=elbowEdgeStyle;elbow=vertical;html=1;rounded=1;curved=0;sourcePerimeterSpacing=0;targetPerimeterSpacing=0;startSize=6;endSize=6;fontSize=12;" edge="1" target="8f1HhXyE-kR78pWUq_EE-98" source="8f1HhXyE-kR78pWUq_EE-82" parent="PtXjF8p_FWv8pifJI37m-10">
          <mxGeometry relative="1" as="geometry">
            <mxPoint x="-5503.5" y="-140" as="sourcePoint" />
          </mxGeometry>
        </mxCell>
        <mxCell id="8f1HhXyE-kR78pWUq_EE-98" value="Row1" style="whiteSpace=wrap;html=1;" vertex="1" parent="PtXjF8p_FWv8pifJI37m-10">
          <mxGeometry x="3233" y="310" width="100" height="40" as="geometry" />
        </mxCell>
        <mxCell id="8f1HhXyE-kR78pWUq_EE-99" value="" style="edgeStyle=elbowEdgeStyle;elbow=vertical;html=1;rounded=1;curved=0;sourcePerimeterSpacing=0;targetPerimeterSpacing=0;startSize=6;endSize=6;fontSize=12;" edge="1" target="8f1HhXyE-kR78pWUq_EE-100" source="8f1HhXyE-kR78pWUq_EE-82" parent="PtXjF8p_FWv8pifJI37m-10">
          <mxGeometry relative="1" as="geometry">
            <mxPoint x="-3436.75" y="-140" as="sourcePoint" />
          </mxGeometry>
        </mxCell>
        <mxCell id="8f1HhXyE-kR78pWUq_EE-100" value="Row1" style="whiteSpace=wrap;html=1;" vertex="1" parent="PtXjF8p_FWv8pifJI37m-10">
          <mxGeometry x="3373" y="310" width="100" height="40" as="geometry" />
        </mxCell>
        <mxCell id="8f1HhXyE-kR78pWUq_EE-101" value="" style="edgeStyle=elbowEdgeStyle;elbow=vertical;html=1;rounded=1;curved=0;sourcePerimeterSpacing=0;targetPerimeterSpacing=0;startSize=6;endSize=6;fontSize=12;" edge="1" target="8f1HhXyE-kR78pWUq_EE-102" source="8f1HhXyE-kR78pWUq_EE-84" parent="PtXjF8p_FWv8pifJI37m-10">
          <mxGeometry relative="1" as="geometry">
            <mxPoint x="-845" y="-230" as="sourcePoint" />
          </mxGeometry>
        </mxCell>
        <mxCell id="8f1HhXyE-kR78pWUq_EE-102" value="Row 2" style="whiteSpace=wrap;html=1;" vertex="1" parent="PtXjF8p_FWv8pifJI37m-10">
          <mxGeometry x="3513" y="310" width="100" height="40" as="geometry" />
        </mxCell>
        <mxCell id="8f1HhXyE-kR78pWUq_EE-103" value="" style="edgeStyle=elbowEdgeStyle;elbow=vertical;html=1;rounded=1;curved=0;sourcePerimeterSpacing=0;targetPerimeterSpacing=0;startSize=6;endSize=6;fontSize=12;" edge="1" target="8f1HhXyE-kR78pWUq_EE-104" source="8f1HhXyE-kR78pWUq_EE-84" parent="PtXjF8p_FWv8pifJI37m-10">
          <mxGeometry relative="1" as="geometry">
            <mxPoint x="-1048" y="-140" as="sourcePoint" />
          </mxGeometry>
        </mxCell>
        <mxCell id="8f1HhXyE-kR78pWUq_EE-104" value="Row 2" style="whiteSpace=wrap;html=1;" vertex="1" parent="PtXjF8p_FWv8pifJI37m-10">
          <mxGeometry x="3653" y="310" width="100" height="40" as="geometry" />
        </mxCell>
        <mxCell id="8f1HhXyE-kR78pWUq_EE-105" value="" style="edgeStyle=elbowEdgeStyle;elbow=vertical;html=1;rounded=1;curved=0;sourcePerimeterSpacing=0;targetPerimeterSpacing=0;startSize=6;endSize=6;fontSize=12;" edge="1" target="8f1HhXyE-kR78pWUq_EE-106" source="8f1HhXyE-kR78pWUq_EE-84" parent="PtXjF8p_FWv8pifJI37m-10">
          <mxGeometry relative="1" as="geometry">
            <mxPoint x="1123.75" y="-140" as="sourcePoint" />
          </mxGeometry>
        </mxCell>
        <mxCell id="8f1HhXyE-kR78pWUq_EE-106" value="Row 2" style="whiteSpace=wrap;html=1;" vertex="1" parent="PtXjF8p_FWv8pifJI37m-10">
          <mxGeometry x="3793" y="310" width="100" height="40" as="geometry" />
        </mxCell>
      </root>
    </mxGraphModel>
  </diagram>
</mxfile>
